<svg width="98" height="24" viewBox="0 0 98 24" fill="none" xmlns="http://www.w3.org/2000/svg">
<path d="M4.18 4.88V17.14H10.3V19.5H1.62V4.88H4.18ZM13.2417 7.64C12.4017 7.64 11.7417 6.98 11.7417 6.16C11.7417 5.34 12.4017 4.7 13.2417 4.7C14.0417 4.7 14.7017 5.34 14.7017 6.16C14.7017 6.98 14.0417 7.64 13.2417 7.64ZM12.0217 19.5V9.62H14.4617V19.5H12.0217ZM19.9227 19.76C17.8227 19.76 16.5427 18.54 16.5427 16.68C16.5427 14.86 17.8627 13.72 20.2027 13.54L23.1627 13.32V13.1C23.1627 11.76 22.3627 11.22 21.1227 11.22C19.6827 11.22 18.8827 11.82 18.8827 12.86H16.8027C16.8027 10.72 18.5627 9.32 21.2427 9.32C23.9027 9.32 25.5427 10.76 25.5427 13.5V19.5H23.4027L23.2227 18.04C22.8027 19.06 21.4627 19.76 19.9227 19.76ZM20.7227 17.92C22.2227 17.92 23.1827 17.02 23.1827 15.5V14.98L21.1227 15.14C19.6027 15.28 19.0227 15.78 19.0227 16.58C19.0227 17.48 19.6227 17.92 20.7227 17.92ZM30.3797 19.5H27.9397V9.62H30.1797L30.3797 10.78C30.8797 9.96 31.8797 9.32 33.2997 9.32C34.7997 9.32 35.8397 10.06 36.3597 11.2C36.8597 10.06 38.0197 9.32 39.5197 9.32C41.9197 9.32 43.2397 10.76 43.2397 13.04V19.5H40.8197V13.68C40.8197 12.26 40.0597 11.52 38.8997 11.52C37.7197 11.52 36.8197 12.28 36.8197 13.9V19.5H34.3797V13.66C34.3797 12.28 33.6397 11.54 32.4797 11.54C31.3197 11.54 30.3797 12.3 30.3797 13.9V19.5ZM53.9456 4.88V12.56L59.8656 4.88H62.8856L58.0456 11.12L62.9456 19.5H59.9856L56.3656 13.28L53.9456 16.38V19.5H51.3856V4.88H53.9456ZM66.1422 19.74C65.2622 19.74 64.5222 19.02 64.5222 18.16C64.5222 17.28 65.2622 16.56 66.1422 16.56C67.0222 16.56 67.7622 17.28 67.7622 18.16C67.7622 19.02 67.0222 19.74 66.1422 19.74Z" fill="black"/>
<path d="M86 2.25C84.0716 2.25 82.1866 2.82183 80.5832 3.89317C78.9798 4.96451 77.7301 6.48726 76.9922 8.26884C76.2542 10.0504 76.0611 12.0108 76.4373 13.9021C76.8136 15.7934 77.7422 17.5307 79.1057 18.8943C80.4693 20.2579 82.2066 21.1865 84.0979 21.5627C85.9892 21.9389 87.9496 21.7458 89.7312 21.0078C91.5127 20.2699 93.0355 19.0202 94.1068 17.4168C95.1782 15.8134 95.75 13.9284 95.75 12C95.7473 9.41498 94.7192 6.93661 92.8913 5.10872C91.0634 3.28084 88.585 2.25273 86 2.25ZM90.2806 10.2806L85.0306 15.5306C84.961 15.6004 84.8783 15.6557 84.7872 15.6934C84.6962 15.7312 84.5986 15.7506 84.5 15.7506C84.4014 15.7506 84.3038 15.7312 84.2128 15.6934C84.1218 15.6557 84.039 15.6004 83.9694 15.5306L81.7194 13.2806C81.5786 13.1399 81.4996 12.949 81.4996 12.75C81.4996 12.551 81.5786 12.3601 81.7194 12.2194C81.8601 12.0786 82.051 11.9996 82.25 11.9996C82.449 11.9996 82.6399 12.0786 82.7806 12.2194L84.5 13.9397L89.2194 9.21937C89.2891 9.14969 89.3718 9.09442 89.4628 9.0567C89.5539 9.01899 89.6515 8.99958 89.75 8.99958C89.8486 8.99958 89.9461 9.01899 90.0372 9.0567C90.1282 9.09442 90.2109 9.14969 90.2806 9.21937C90.3503 9.28906 90.4056 9.37178 90.4433 9.46283C90.481 9.55387 90.5004 9.65145 90.5004 9.75C90.5004 9.84855 90.481 9.94613 90.4433 10.0372C90.4056 10.1282 90.3503 10.2109 90.2806 10.2806Z" fill="#01AB31"/>
</svg>
