<svg width="259" height="22" viewBox="0 0 259 22" fill="none" xmlns="http://www.w3.org/2000/svg">
<path d="M2.544 16.5H1.392V5.044H2.544V10.148H8.736V5.044H9.872V16.5H8.736V11.22H2.544V16.5ZM11.8893 12.628C11.8893 10.26 13.5533 8.548 15.8253 8.548C18.0973 8.548 19.7613 10.26 19.7613 12.628C19.7613 14.98 18.0973 16.692 15.8253 16.692C13.5533 16.692 11.8893 14.98 11.8893 12.628ZM13.0093 12.612C13.0093 14.436 14.1613 15.7 15.8253 15.7C17.4733 15.7 18.6413 14.436 18.6413 12.612C18.6413 10.82 17.4733 9.54 15.8253 9.54C14.1613 9.54 13.0093 10.82 13.0093 12.612ZM22.631 16.5H21.527V8.756H22.487L22.615 9.86C22.999 9.044 23.863 8.548 24.951 8.548C26.167 8.548 27.079 9.188 27.447 10.196C27.799 9.188 28.743 8.548 29.991 8.548C31.671 8.548 32.775 9.636 32.775 11.428V16.5H31.703V11.652C31.703 10.324 30.967 9.54 29.783 9.54C28.487 9.54 27.719 10.516 27.719 11.716V16.5H26.631V11.636C26.631 10.324 25.879 9.556 24.711 9.556C23.415 9.556 22.631 10.516 22.631 11.7V16.5ZM38.2438 16.692C35.9718 16.692 34.4518 15.06 34.4518 12.628C34.4518 10.212 35.9557 8.548 38.1638 8.548C40.2598 8.548 41.6838 10.036 41.6838 12.228V12.772H35.5238C35.6038 14.66 36.5958 15.748 38.2598 15.748C39.5238 15.748 40.3398 15.204 40.6278 14.18H41.6838C41.2678 15.812 40.0678 16.692 38.2438 16.692ZM38.1638 9.492C36.7078 9.492 35.7478 10.452 35.5558 11.972H40.5798C40.5798 10.484 39.6198 9.492 38.1638 9.492Z" fill="black" fill-opacity="0.6"/>
<path d="M53.5307 5.46937L58.5307 10.4694C58.6007 10.539 58.6561 10.6218 58.694 10.713C58.7318 10.8042 58.7513 10.9019 58.7513 11.0006C58.7513 11.0993 58.7318 11.1971 58.694 11.2882C58.6561 11.3794 58.6007 11.4622 58.5307 11.5319L53.5307 16.5319C53.3898 16.6728 53.1987 16.7519 52.9995 16.7519C52.8002 16.7519 52.6091 16.6728 52.4682 16.5319C52.3273 16.391 52.2482 16.1999 52.2482 16.0006C52.2482 15.8014 52.3273 15.6103 52.4682 15.4694L56.9376 11L52.4676 6.53062C52.3267 6.38973 52.2476 6.19863 52.2476 5.99937C52.2476 5.80011 52.3267 5.60902 52.4676 5.46812C52.6085 5.32723 52.7996 5.24807 52.9989 5.24807C53.1981 5.24807 53.3892 5.32723 53.5301 5.46812L53.5307 5.46937Z" fill="black" fill-opacity="0.6"/>
<path d="M75.704 8.02C75.704 6.1 77.24 4.836 79.544 4.836C81.608 4.836 82.968 5.988 83.144 7.908H81.976C81.848 6.612 80.968 5.876 79.528 5.876C77.912 5.876 76.856 6.708 76.856 8.004C76.856 9.012 77.448 9.652 78.648 9.956L80.616 10.436C82.408 10.868 83.336 11.892 83.336 13.444C83.336 15.428 81.8 16.692 79.432 16.692C77.208 16.692 75.704 15.524 75.56 13.652H76.744C76.808 14.852 77.864 15.636 79.432 15.636C81.112 15.636 82.184 14.82 82.184 13.508C82.184 12.484 81.608 11.812 80.376 11.524L78.44 11.044C76.648 10.612 75.704 9.588 75.704 8.02ZM86.2716 16.484H85.1676V4.836H86.2716V10.1C86.7676 9.172 87.7116 8.548 89.0076 8.548C91.0396 8.548 91.9516 9.812 91.9516 11.764V16.5H90.8476V12.004C90.8476 10.196 89.9996 9.556 88.7996 9.556C87.1356 9.556 86.2716 10.788 86.2716 12.276V16.484ZM93.608 12.628C93.608 10.26 95.272 8.548 97.544 8.548C99.816 8.548 101.48 10.26 101.48 12.628C101.48 14.98 99.816 16.692 97.544 16.692C95.272 16.692 93.608 14.98 93.608 12.628ZM94.728 12.612C94.728 14.436 95.88 15.7 97.544 15.7C99.192 15.7 100.36 14.436 100.36 12.612C100.36 10.82 99.192 9.54 97.544 9.54C95.88 9.54 94.728 10.82 94.728 12.612ZM103.246 19.876V8.756H104.206L104.318 10.324C104.862 9.124 105.95 8.548 107.246 8.548C109.486 8.548 110.83 10.26 110.83 12.596C110.83 14.932 109.534 16.692 107.246 16.692C105.934 16.692 104.894 16.132 104.35 15.012V19.876H103.246ZM104.366 12.628C104.366 14.404 105.358 15.7 107.054 15.7C108.734 15.7 109.71 14.404 109.71 12.628C109.71 10.836 108.734 9.556 107.054 9.556C105.358 9.556 104.366 10.836 104.366 12.628Z" fill="black" fill-opacity="0.6"/>
<path d="M122.531 5.46937L127.531 10.4694C127.601 10.539 127.656 10.6218 127.694 10.713C127.732 10.8042 127.751 10.9019 127.751 11.0006C127.751 11.0993 127.732 11.1971 127.694 11.2882C127.656 11.3794 127.601 11.4622 127.531 11.5319L122.531 16.5319C122.39 16.6728 122.199 16.7519 121.999 16.7519C121.8 16.7519 121.609 16.6728 121.468 16.5319C121.327 16.391 121.248 16.1999 121.248 16.0006C121.248 15.8014 121.327 15.6103 121.468 15.4694L125.938 11L121.468 6.53062C121.327 6.38973 121.248 6.19863 121.248 5.99937C121.248 5.80011 121.327 5.60902 121.468 5.46812C121.609 5.32723 121.8 5.24807 121.999 5.24807C122.198 5.24807 122.389 5.32723 122.53 5.46812L122.531 5.46937Z" fill="black" fill-opacity="0.6"/>
<path d="M146.528 16.5H145.392V5.044H146.528L150.704 15.14L154.88 5.044H156.032V16.5H154.896V11.06C154.896 9.06 154.928 8.18 154.992 7.396L151.264 16.5H150.16L146.432 7.444C146.496 7.876 146.528 9.14 146.528 10.884V16.5ZM161.822 16.692C159.55 16.692 158.03 15.06 158.03 12.628C158.03 10.212 159.534 8.548 161.742 8.548C163.838 8.548 165.262 10.036 165.262 12.228V12.772H159.102C159.182 14.66 160.174 15.748 161.838 15.748C163.102 15.748 163.918 15.204 164.206 14.18H165.262C164.846 15.812 163.646 16.692 161.822 16.692ZM161.742 9.492C160.286 9.492 159.326 10.452 159.134 11.972H164.158C164.158 10.484 163.198 9.492 161.742 9.492ZM168.131 16.5H167.027V8.756H167.987L168.147 10.1C168.659 9.108 169.683 8.548 170.803 8.548C172.931 8.548 173.811 9.812 173.811 11.764V16.5H172.707V12.004C172.707 10.196 171.891 9.556 170.611 9.556C169.027 9.556 168.131 10.708 168.131 12.452V16.5Z" fill="black" fill-opacity="0.6"/>
<path d="M185.531 5.46937L190.531 10.4694C190.601 10.539 190.656 10.6218 190.694 10.713C190.732 10.8042 190.751 10.9019 190.751 11.0006C190.751 11.0993 190.732 11.1971 190.694 11.2882C190.656 11.3794 190.601 11.4622 190.531 11.5319L185.531 16.5319C185.39 16.6728 185.199 16.7519 184.999 16.7519C184.8 16.7519 184.609 16.6728 184.468 16.5319C184.327 16.391 184.248 16.1999 184.248 16.0006C184.248 15.8014 184.327 15.6103 184.468 15.4694L188.938 11L184.468 6.53062C184.327 6.38973 184.248 6.19863 184.248 5.99937C184.248 5.80011 184.327 5.60902 184.468 5.46812C184.609 5.32723 184.8 5.24807 184.999 5.24807C185.198 5.24807 185.389 5.32723 185.53 5.46812L185.531 5.46937Z" fill="black" fill-opacity="0.6"/>
<path d="M207.192 6.6V5.544H215.4V6.6H211.864V17H210.712V6.6H207.192ZM215.587 13.288V12.296H220.227V13.288H215.587ZM221.715 14.824H222.771C222.771 15.72 223.443 16.28 224.531 16.28C225.731 16.28 226.435 15.768 226.435 14.936C226.435 14.296 226.115 13.928 225.203 13.704L223.875 13.368C222.531 13.032 221.875 12.328 221.875 11.272C221.875 9.912 223.011 9.048 224.675 9.048C226.307 9.048 227.363 9.944 227.411 11.384H226.339C226.307 10.488 225.683 9.96 224.643 9.96C223.555 9.96 222.947 10.424 222.947 11.256C222.947 11.848 223.363 12.264 224.211 12.472L225.539 12.808C226.883 13.144 227.491 13.768 227.491 14.888C227.491 16.28 226.307 17.192 224.547 17.192C222.803 17.192 221.715 16.264 221.715 14.824ZM230.412 16.984H229.308V5.336H230.412V10.6C230.908 9.672 231.852 9.048 233.148 9.048C235.18 9.048 236.092 10.312 236.092 12.264V17H234.988V12.504C234.988 10.696 234.14 10.056 232.94 10.056C231.276 10.056 230.412 11.288 230.412 12.776V16.984ZM238.837 7.128C238.389 7.128 238.021 6.76 238.021 6.312C238.021 5.864 238.389 5.48 238.837 5.48C239.285 5.48 239.669 5.864 239.669 6.312C239.669 6.76 239.285 7.128 238.837 7.128ZM238.293 17V9.256H239.397V17H238.293ZM245.747 9.16V10.152H245.139C243.715 10.152 242.803 11.112 242.803 12.584V17H241.699V9.256H242.739L242.819 10.456C243.123 9.624 243.939 9.08 245.027 9.08C245.267 9.08 245.475 9.096 245.747 9.16ZM249.303 17H248.215V10.184H246.663V9.256H248.215V6.808H249.303V9.256H250.855V10.184H249.303V17ZM251.637 14.824H252.693C252.693 15.72 253.365 16.28 254.453 16.28C255.653 16.28 256.357 15.768 256.357 14.936C256.357 14.296 256.037 13.928 255.125 13.704L253.797 13.368C252.453 13.032 251.797 12.328 251.797 11.272C251.797 9.912 252.933 9.048 254.597 9.048C256.229 9.048 257.285 9.944 257.333 11.384H256.261C256.229 10.488 255.605 9.96 254.565 9.96C253.477 9.96 252.869 10.424 252.869 11.256C252.869 11.848 253.285 12.264 254.133 12.472L255.461 12.808C256.805 13.144 257.413 13.768 257.413 14.888C257.413 16.28 256.229 17.192 254.469 17.192C252.725 17.192 251.637 16.264 251.637 14.824Z" fill="black"/>
</svg>
