<svg width="146" height="24" viewBox="0 0 146 24" fill="none" xmlns="http://www.w3.org/2000/svg">
<path d="M0.78 8.96C0.78 6.4 2.9 4.62 5.98 4.62C8.94 4.62 10.82 6.26 10.9 8.9H8.34C8.28 7.64 7.38 6.9 5.94 6.9C4.36 6.9 3.34 7.66 3.34 8.88C3.34 9.92 3.9 10.5 5.12 10.78L7.42 11.28C9.92 11.82 11.14 13.1 11.14 15.28C11.14 18 9.02 19.76 5.8 19.76C2.68 19.76 0.64 18.1 0.58 15.48H3.14C3.16 16.72 4.16 17.46 5.8 17.46C7.5 17.46 8.58 16.72 8.58 15.5C8.58 14.52 8.08 13.94 6.88 13.68L4.56 13.16C2.08 12.62 0.78 11.2 0.78 8.96ZM16.0359 19.76C13.9359 19.76 12.6559 18.54 12.6559 16.68C12.6559 14.86 13.9759 13.72 16.3159 13.54L19.2759 13.32V13.1C19.2759 11.76 18.4759 11.22 17.2359 11.22C15.7959 11.22 14.9959 11.82 14.9959 12.86H12.9159C12.9159 10.72 14.6759 9.32 17.3559 9.32C20.0159 9.32 21.6559 10.76 21.6559 13.5V19.5H19.5159L19.3359 18.04C18.9159 19.06 17.5759 19.76 16.0359 19.76ZM16.8359 17.92C18.3359 17.92 19.2959 17.02 19.2959 15.5V14.98L17.2359 15.14C15.7159 15.28 15.1359 15.78 15.1359 16.58C15.1359 17.48 15.7359 17.92 16.8359 17.92ZM26.493 19.5H24.053V9.62H26.293L26.493 10.78C26.993 9.96 27.993 9.32 29.413 9.32C30.913 9.32 31.953 10.06 32.473 11.2C32.973 10.06 34.133 9.32 35.633 9.32C38.033 9.32 39.353 10.76 39.353 13.04V19.5H36.933V13.68C36.933 12.26 36.173 11.52 35.013 11.52C33.833 11.52 32.933 12.28 32.933 13.9V19.5H30.493V13.66C30.493 12.28 29.753 11.54 28.593 11.54C27.433 11.54 26.493 12.3 26.493 13.9V19.5ZM44.6883 19.76C42.5883 19.76 41.3083 18.54 41.3083 16.68C41.3083 14.86 42.6283 13.72 44.9683 13.54L47.9283 13.32V13.1C47.9283 11.76 47.1283 11.22 45.8883 11.22C44.4483 11.22 43.6483 11.82 43.6483 12.86H41.5683C41.5683 10.72 43.3283 9.32 46.0083 9.32C48.6683 9.32 50.3083 10.76 50.3083 13.5V19.5H48.1683L47.9883 18.04C47.5683 19.06 46.2283 19.76 44.6883 19.76ZM45.4883 17.92C46.9883 17.92 47.9483 17.02 47.9483 15.5V14.98L45.8883 15.14C44.3683 15.28 43.7883 15.78 43.7883 16.58C43.7883 17.48 44.3883 17.92 45.4883 17.92ZM55.1453 19.5H52.7053V9.62H54.9653L55.1653 10.9C55.7853 9.9 56.9853 9.32 58.3253 9.32C60.8053 9.32 62.0853 10.86 62.0853 13.42V19.5H59.6453V14C59.6453 12.34 58.8253 11.54 57.5653 11.54C56.0653 11.54 55.1453 12.58 55.1453 14.18V19.5ZM67.8427 19.5H65.4027V11.66H63.5027V9.62H65.4027V6.54H67.8427V9.62H69.7627V11.66H67.8427V19.5ZM73.7195 19.5H71.2795V4.62H73.7395V10.9C74.3595 9.94 75.5195 9.32 76.9395 9.32C79.3795 9.32 80.6595 10.86 80.6595 13.42V19.5H78.2195V14C78.2195 12.34 77.3995 11.54 76.1595 11.54C74.6195 11.54 73.7195 12.62 73.7195 14.1V19.5ZM85.9969 19.76C83.8969 19.76 82.6169 18.54 82.6169 16.68C82.6169 14.86 83.9369 13.72 86.2769 13.54L89.2369 13.32V13.1C89.2369 11.76 88.4369 11.22 87.1969 11.22C85.7569 11.22 84.9569 11.82 84.9569 12.86H82.8769C82.8769 10.72 84.6369 9.32 87.3169 9.32C89.9769 9.32 91.6169 10.76 91.6169 13.5V19.5H89.4769L89.2969 18.04C88.8769 19.06 87.5369 19.76 85.9969 19.76ZM86.7969 17.92C88.2969 17.92 89.2569 17.02 89.2569 15.5V14.98L87.1969 15.14C85.6769 15.28 85.0969 15.78 85.0969 16.58C85.0969 17.48 85.6969 17.92 86.7969 17.92ZM105.025 19.5H99.7645V4.88H104.885C109.205 4.88 112.185 7.86 112.185 12.22C112.185 16.52 109.265 19.5 105.025 19.5ZM104.645 7.24H102.325V17.14H104.785C107.705 17.14 109.485 15.26 109.485 12.22C109.485 9.12 107.665 7.24 104.645 7.24ZM114.951 19.74C114.071 19.74 113.331 19.02 113.331 18.16C113.331 17.28 114.071 16.56 114.951 16.56C115.831 16.56 116.571 17.28 116.571 18.16C116.571 19.02 115.831 19.74 114.951 19.74Z" fill="black"/>
<path d="M134 2.25C132.072 2.25 130.187 2.82183 128.583 3.89317C126.98 4.96451 125.73 6.48726 124.992 8.26884C124.254 10.0504 124.061 12.0108 124.437 13.9021C124.814 15.7934 125.742 17.5307 127.106 18.8943C128.469 20.2579 130.207 21.1865 132.098 21.5627C133.989 21.9389 135.95 21.7458 137.731 21.0078C139.513 20.2699 141.035 19.0202 142.107 17.4168C143.178 15.8134 143.75 13.9284 143.75 12C143.747 9.41498 142.719 6.93661 140.891 5.10872C139.063 3.28084 136.585 2.25273 134 2.25ZM138.281 10.2806L133.031 15.5306C132.961 15.6004 132.878 15.6557 132.787 15.6934C132.696 15.7312 132.599 15.7506 132.5 15.7506C132.401 15.7506 132.304 15.7312 132.213 15.6934C132.122 15.6557 132.039 15.6004 131.969 15.5306L129.719 13.2806C129.579 13.1399 129.5 12.949 129.5 12.75C129.5 12.551 129.579 12.3601 129.719 12.2194C129.86 12.0786 130.051 11.9996 130.25 11.9996C130.449 11.9996 130.64 12.0786 130.781 12.2194L132.5 13.9397L137.219 9.21937C137.289 9.14969 137.372 9.09442 137.463 9.0567C137.554 9.01899 137.651 8.99958 137.75 8.99958C137.849 8.99958 137.946 9.01899 138.037 9.0567C138.128 9.09442 138.211 9.14969 138.281 9.21937C138.35 9.28906 138.406 9.37178 138.443 9.46283C138.481 9.55387 138.5 9.65145 138.5 9.75C138.5 9.84855 138.481 9.94613 138.443 10.0372C138.406 10.1282 138.35 10.2109 138.281 10.2806Z" fill="#01AB31"/>
</svg>
