<svg width="97" height="24" viewBox="0 0 97 24" fill="none" xmlns="http://www.w3.org/2000/svg">
<path d="M2.88 19.5H0.22L5.5 4.88H8.12L13.4 19.5H10.7L9.52 16.12H4.06L2.88 19.5ZM6.48 9.24L4.82 13.96H8.78L7.1 9.24C6.98 8.86 6.84 8.42 6.8 8.12C6.74 8.4 6.62 8.84 6.48 9.24ZM17.3333 19.5H14.9133V4.62H17.3333V19.5ZM24.3128 19.76C21.3728 19.76 19.3128 17.62 19.3128 14.56C19.3128 11.46 21.3328 9.32 24.2328 9.32C27.1928 9.32 29.0728 11.3 29.0728 14.38V15.12L21.6328 15.14C21.8128 16.88 22.7328 17.76 24.3528 17.76C25.6928 17.76 26.5728 17.24 26.8528 16.3H29.1128C28.6928 18.46 26.8928 19.76 24.3128 19.76ZM24.2528 11.32C22.8128 11.32 21.9328 12.1 21.6928 13.58H26.6528C26.6528 12.22 25.7128 11.32 24.2528 11.32ZM32.2964 19.5H29.5164L32.9164 14.66L29.5164 9.62H32.3564L34.5364 12.98L36.6364 9.62H39.3764L36.0164 14.62L39.2764 19.5H36.4764L34.3764 16.24L32.2964 19.5ZM49.0609 19.5H46.5809V4.88H49.0609L53.7809 16.52L58.5009 4.88H61.0209V19.5H58.5409V15C58.5409 12.06 58.5409 11.2 58.6809 10.16L54.9609 19.5H52.6009L48.9009 10.18C49.0409 11.06 49.0609 12.44 49.0609 14.26V19.5ZM65.5367 19.74C64.6567 19.74 63.9167 19.02 63.9167 18.16C63.9167 17.28 64.6567 16.56 65.5367 16.56C66.4167 16.56 67.1567 17.28 67.1567 18.16C67.1567 19.02 66.4167 19.74 65.5367 19.74Z" fill="black"/>
<path d="M85 2.25C83.0716 2.25 81.1866 2.82183 79.5832 3.89317C77.9798 4.96451 76.7301 6.48726 75.9922 8.26884C75.2542 10.0504 75.0611 12.0108 75.4373 13.9021C75.8136 15.7934 76.7422 17.5307 78.1057 18.8943C79.4693 20.2579 81.2066 21.1865 83.0979 21.5627C84.9892 21.9389 86.9496 21.7458 88.7312 21.0078C90.5127 20.2699 92.0355 19.0202 93.1068 17.4168C94.1782 15.8134 94.75 13.9284 94.75 12C94.7473 9.41498 93.7192 6.93661 91.8913 5.10872C90.0634 3.28084 87.585 2.25273 85 2.25ZM89.2806 10.2806L84.0306 15.5306C83.961 15.6004 83.8783 15.6557 83.7872 15.6934C83.6962 15.7312 83.5986 15.7506 83.5 15.7506C83.4014 15.7506 83.3038 15.7312 83.2128 15.6934C83.1218 15.6557 83.039 15.6004 82.9694 15.5306L80.7194 13.2806C80.5786 13.1399 80.4996 12.949 80.4996 12.75C80.4996 12.551 80.5786 12.3601 80.7194 12.2194C80.8601 12.0786 81.051 11.9996 81.25 11.9996C81.449 11.9996 81.6399 12.0786 81.7806 12.2194L83.5 13.9397L88.2194 9.21937C88.2891 9.14969 88.3718 9.09442 88.4628 9.0567C88.5539 9.01899 88.6515 8.99958 88.75 8.99958C88.8486 8.99958 88.9461 9.01899 89.0372 9.0567C89.1282 9.09442 89.2109 9.14969 89.2806 9.21937C89.3503 9.28906 89.4056 9.37178 89.4433 9.46283C89.481 9.55387 89.5004 9.65145 89.5004 9.75C89.5004 9.84855 89.481 9.94613 89.4433 10.0372C89.4056 10.1282 89.3503 10.2109 89.2806 10.2806Z" fill="#01AB31"/>
</svg>
