<svg width="106" height="24" viewBox="0 0 106 24" fill="none" xmlns="http://www.w3.org/2000/svg">
<path d="M10.7 19.5H1.62V4.88H10.7V7.24H4.18V11H10.02V13.26H4.18V17.14H10.7V19.5ZM16.4755 19.5H14.0355V11.66H12.1355V9.62H14.0355V6.54H16.4755V9.62H18.3955V11.66H16.4755V19.5ZM22.3523 19.5H19.9123V4.62H22.3723V10.9C22.9923 9.94 24.1523 9.32 25.5723 9.32C28.0123 9.32 29.2923 10.86 29.2923 13.42V19.5H26.8523V14C26.8523 12.34 26.0323 11.54 24.7923 11.54C23.2523 11.54 22.3523 12.62 22.3523 14.1V19.5ZM34.6297 19.76C32.5297 19.76 31.2497 18.54 31.2497 16.68C31.2497 14.86 32.5697 13.72 34.9097 13.54L37.8697 13.32V13.1C37.8697 11.76 37.0697 11.22 35.8297 11.22C34.3897 11.22 33.5897 11.82 33.5897 12.86H31.5097C31.5097 10.72 33.2697 9.32 35.9497 9.32C38.6097 9.32 40.2497 10.76 40.2497 13.5V19.5H38.1097L37.9297 18.04C37.5097 19.06 36.1697 19.76 34.6297 19.76ZM35.4297 17.92C36.9297 17.92 37.8897 17.02 37.8897 15.5V14.98L35.8297 15.14C34.3097 15.28 33.7297 15.78 33.7297 16.58C33.7297 17.48 34.3297 17.92 35.4297 17.92ZM45.0867 19.5H42.6467V9.62H44.9067L45.1067 10.9C45.7267 9.9 46.9267 9.32 48.2667 9.32C50.7467 9.32 52.0267 10.86 52.0267 13.42V19.5H49.5867V14C49.5867 12.34 48.7667 11.54 47.5067 11.54C46.0067 11.54 45.0867 12.58 45.0867 14.18V19.5ZM62.7347 19.5H60.1747V4.88H65.7547C69.0747 4.88 71.0147 6.56 71.0147 9.44C71.0147 11.4 70.0947 12.8 68.3747 13.5L71.1547 19.5H68.3547L65.8747 14.04H62.7347V19.5ZM62.7347 7.16V11.78H65.7547C67.3747 11.78 68.3347 10.92 68.3347 9.44C68.3347 7.98 67.3747 7.16 65.7547 7.16H62.7347ZM74.7164 19.74C73.8364 19.74 73.0964 19.02 73.0964 18.16C73.0964 17.28 73.8364 16.56 74.7164 16.56C75.5964 16.56 76.3364 17.28 76.3364 18.16C76.3364 19.02 75.5964 19.74 74.7164 19.74Z" fill="black"/>
<path d="M94 2.25C92.0716 2.25 90.1866 2.82183 88.5832 3.89317C86.9798 4.96451 85.7301 6.48726 84.9922 8.26884C84.2542 10.0504 84.0611 12.0108 84.4373 13.9021C84.8136 15.7934 85.7422 17.5307 87.1057 18.8943C88.4693 20.2579 90.2066 21.1865 92.0979 21.5627C93.9892 21.9389 95.9496 21.7458 97.7312 21.0078C99.5127 20.2699 101.035 19.0202 102.107 17.4168C103.178 15.8134 103.75 13.9284 103.75 12C103.747 9.41498 102.719 6.93661 100.891 5.10872C99.0634 3.28084 96.585 2.25273 94 2.25ZM98.2806 10.2806L93.0306 15.5306C92.961 15.6004 92.8783 15.6557 92.7872 15.6934C92.6962 15.7312 92.5986 15.7506 92.5 15.7506C92.4014 15.7506 92.3038 15.7312 92.2128 15.6934C92.1218 15.6557 92.039 15.6004 91.9694 15.5306L89.7194 13.2806C89.5786 13.1399 89.4996 12.949 89.4996 12.75C89.4996 12.551 89.5786 12.3601 89.7194 12.2194C89.8601 12.0786 90.051 11.9996 90.25 11.9996C90.449 11.9996 90.6399 12.0786 90.7806 12.2194L92.5 13.9397L97.2194 9.21937C97.2891 9.14969 97.3718 9.09442 97.4628 9.0567C97.5539 9.01899 97.6515 8.99958 97.75 8.99958C97.8486 8.99958 97.9461 9.01899 98.0372 9.0567C98.1282 9.09442 98.2109 9.14969 98.2806 9.21937C98.3503 9.28906 98.4056 9.37178 98.4433 9.46283C98.481 9.55387 98.5004 9.65145 98.5004 9.75C98.5004 9.84855 98.481 9.94613 98.4433 10.0372C98.4056 10.1282 98.3503 10.2109 98.2806 10.2806Z" fill="#01AB31"/>
</svg>
