<svg width="103" height="24" viewBox="0 0 103 24" fill="none" xmlns="http://www.w3.org/2000/svg">
<path d="M14.96 12.18C14.96 16.62 12.04 19.74 7.84 19.74C3.66 19.74 0.78 16.64 0.78 12.18C0.78 7.74 3.68 4.62 7.86 4.62C12.04 4.62 14.96 7.72 14.96 12.18ZM12.26 12.18C12.26 9.06 10.54 7.08 7.86 7.08C5.18 7.08 3.46 9.06 3.46 12.18C3.46 15.3 5.18 17.28 7.86 17.28C10.54 17.28 12.26 15.26 12.26 12.18ZM19.4427 19.5H17.0227V4.62H19.4427V19.5ZM23.2222 7.64C22.3822 7.64 21.7222 6.98 21.7222 6.16C21.7222 5.34 22.3822 4.7 23.2222 4.7C24.0222 4.7 24.6822 5.34 24.6822 6.16C24.6822 6.98 24.0222 7.64 23.2222 7.64ZM22.0022 19.5V9.62H24.4422V19.5H22.0022ZM29.7631 19.5L25.8431 9.62H28.4431L30.1631 14.16C30.5831 15.34 30.9231 16.36 31.0431 16.9C31.1831 16.28 31.5431 15.24 31.9631 14.16L33.7631 9.62H36.2831L32.1631 19.5H29.7631ZM38.9058 7.64C38.0658 7.64 37.4058 6.98 37.4058 6.16C37.4058 5.34 38.0658 4.7 38.9058 4.7C39.7058 4.7 40.3658 5.34 40.3658 6.16C40.3658 6.98 39.7058 7.64 38.9058 7.64ZM37.6858 19.5V9.62H40.1258V19.5H37.6858ZM45.5867 19.76C43.4867 19.76 42.2067 18.54 42.2067 16.68C42.2067 14.86 43.5267 13.72 45.8667 13.54L48.8267 13.32V13.1C48.8267 11.76 48.0267 11.22 46.7867 11.22C45.3467 11.22 44.5467 11.82 44.5467 12.86H42.4667C42.4667 10.72 44.2267 9.32 46.9067 9.32C49.5667 9.32 51.2067 10.76 51.2067 13.5V19.5H49.0667L48.8867 18.04C48.4667 19.06 47.1267 19.76 45.5867 19.76ZM46.3867 17.92C47.8867 17.92 48.8467 17.02 48.8467 15.5V14.98L46.7867 15.14C45.2667 15.28 44.6867 15.78 44.6867 16.58C44.6867 17.48 45.2867 17.92 46.3867 17.92ZM65.1344 14.46H61.9144V19.5H59.3544V4.88H65.1344C68.0744 4.88 69.9744 6.8 69.9744 9.66C69.9744 12.48 68.0544 14.46 65.1344 14.46ZM64.6344 7.16H61.9144V12.18H64.5944C66.3544 12.18 67.2944 11.24 67.2944 9.64C67.2944 8.04 66.3344 7.16 64.6344 7.16ZM71.2398 19.74C70.3598 19.74 69.6198 19.02 69.6198 18.16C69.6198 17.28 70.3598 16.56 71.2398 16.56C72.1198 16.56 72.8598 17.28 72.8598 18.16C72.8598 19.02 72.1198 19.74 71.2398 19.74Z" fill="black"/>
<path d="M91 2.25C89.0716 2.25 87.1866 2.82183 85.5832 3.89317C83.9798 4.96451 82.7301 6.48726 81.9922 8.26884C81.2542 10.0504 81.0611 12.0108 81.4373 13.9021C81.8136 15.7934 82.7422 17.5307 84.1057 18.8943C85.4693 20.2579 87.2066 21.1865 89.0979 21.5627C90.9892 21.9389 92.9496 21.7458 94.7312 21.0078C96.5127 20.2699 98.0355 19.0202 99.1068 17.4168C100.178 15.8134 100.75 13.9284 100.75 12C100.747 9.41498 99.7192 6.93661 97.8913 5.10872C96.0634 3.28084 93.585 2.25273 91 2.25ZM95.2806 10.2806L90.0306 15.5306C89.961 15.6004 89.8783 15.6557 89.7872 15.6934C89.6962 15.7312 89.5986 15.7506 89.5 15.7506C89.4014 15.7506 89.3038 15.7312 89.2128 15.6934C89.1218 15.6557 89.039 15.6004 88.9694 15.5306L86.7194 13.2806C86.5786 13.1399 86.4996 12.949 86.4996 12.75C86.4996 12.551 86.5786 12.3601 86.7194 12.2194C86.8601 12.0786 87.051 11.9996 87.25 11.9996C87.449 11.9996 87.6399 12.0786 87.7806 12.2194L89.5 13.9397L94.2194 9.21937C94.2891 9.14969 94.3718 9.09442 94.4628 9.0567C94.5539 9.01899 94.6515 8.99958 94.75 8.99958C94.8486 8.99958 94.9461 9.01899 95.0372 9.0567C95.1282 9.09442 95.2109 9.14969 95.2806 9.21937C95.3503 9.28906 95.4056 9.37178 95.4433 9.46283C95.481 9.55387 95.5004 9.65145 95.5004 9.75C95.5004 9.84855 95.481 9.94613 95.4433 10.0372C95.4056 10.1282 95.3503 10.2109 95.2806 10.2806Z" fill="#01AB31"/>
</svg>
