<svg width="89" height="24" viewBox="0 0 89 24" fill="none" xmlns="http://www.w3.org/2000/svg">
<path d="M2.88 19.5H0.22L5.5 4.88H8.12L13.4 19.5H10.7L9.52 16.12H4.06L2.88 19.5ZM6.48 9.24L4.82 13.96H8.78L7.1 9.24C6.98 8.86 6.84 8.42 6.8 8.12C6.74 8.4 6.62 8.84 6.48 9.24ZM16.9311 19.5L13.0111 9.62H15.6111L17.3311 14.16C17.7511 15.34 18.0911 16.36 18.2111 16.9C18.3511 16.28 18.7111 15.24 19.1311 14.16L20.9311 9.62H23.4511L19.3311 19.5H16.9311ZM27.3055 19.76C25.2055 19.76 23.9255 18.54 23.9255 16.68C23.9255 14.86 25.2455 13.72 27.5855 13.54L30.5455 13.32V13.1C30.5455 11.76 29.7455 11.22 28.5055 11.22C27.0655 11.22 26.2655 11.82 26.2655 12.86H24.1855C24.1855 10.72 25.9455 9.32 28.6255 9.32C31.2855 9.32 32.9255 10.76 32.9255 13.5V19.5H30.7855L30.6055 18.04C30.1855 19.06 28.8455 19.76 27.3055 19.76ZM28.1055 17.92C29.6055 17.92 30.5655 17.02 30.5655 15.5V14.98L28.5055 15.14C26.9855 15.28 26.4055 15.78 26.4055 16.58C26.4055 17.48 27.0055 17.92 28.1055 17.92ZM43.6331 19.5H41.0731V4.88H43.6331V10.92H50.1131V4.88H52.6731V19.5H50.1131V13.3H43.6331V19.5ZM57.1969 19.74C56.3169 19.74 55.5769 19.02 55.5769 18.16C55.5769 17.28 56.3169 16.56 57.1969 16.56C58.0769 16.56 58.8169 17.28 58.8169 18.16C58.8169 19.02 58.0769 19.74 57.1969 19.74Z" fill="black"/>
<path d="M77 2.25C75.0716 2.25 73.1866 2.82183 71.5832 3.89317C69.9798 4.96451 68.7301 6.48726 67.9922 8.26884C67.2542 10.0504 67.0611 12.0108 67.4373 13.9021C67.8136 15.7934 68.7422 17.5307 70.1057 18.8943C71.4693 20.2579 73.2066 21.1865 75.0979 21.5627C76.9892 21.9389 78.9496 21.7458 80.7312 21.0078C82.5127 20.2699 84.0355 19.0202 85.1068 17.4168C86.1782 15.8134 86.75 13.9284 86.75 12C86.7473 9.41498 85.7192 6.93661 83.8913 5.10872C82.0634 3.28084 79.585 2.25273 77 2.25ZM81.2806 10.2806L76.0306 15.5306C75.961 15.6004 75.8783 15.6557 75.7872 15.6934C75.6962 15.7312 75.5986 15.7506 75.5 15.7506C75.4014 15.7506 75.3038 15.7312 75.2128 15.6934C75.1218 15.6557 75.039 15.6004 74.9694 15.5306L72.7194 13.2806C72.5786 13.1399 72.4996 12.949 72.4996 12.75C72.4996 12.551 72.5786 12.3601 72.7194 12.2194C72.8601 12.0786 73.051 11.9996 73.25 11.9996C73.449 11.9996 73.6399 12.0786 73.7806 12.2194L75.5 13.9397L80.2194 9.21937C80.2891 9.14969 80.3718 9.09442 80.4628 9.0567C80.5539 9.01899 80.6515 8.99958 80.75 8.99958C80.8486 8.99958 80.9461 9.01899 81.0372 9.0567C81.1282 9.09442 81.2109 9.14969 81.2806 9.21937C81.3503 9.28906 81.4056 9.37178 81.4433 9.46283C81.481 9.55387 81.5004 9.65145 81.5004 9.75C81.5004 9.84855 81.481 9.94613 81.4433 10.0372C81.4056 10.1282 81.3503 10.2109 81.2806 10.2806Z" fill="#01AB31"/>
</svg>
